Moderustic-Medium.ufo
<glyph name="four" format="2">
  <advance width="665"/>
  <unicode hex="0034"/>
  <outline>
    <contour>
      <point x="41" y="161" type="line"/>
      <point x="384" y="161" type="line"/>
      <point x="384" y="0" type="line"/>
      <point x="504" y="0" type="line"/>
      <point x="504" y="161" type="line"/>
      <point x="636" y="161" type="line"/>
      <point x="636" y="262" type="line"/>
      <point x="504" y="262" type="line"/>
      <point x="504" y="700" type="line"/>
      <point x="367" y="700" type="line"/>
      <point x="41" y="217" type="line"/>
    </contour>
    <contour>
      <point x="194" y="262" type="line"/>
      <point x="384" y="544" type="line"/>
      <point x="384" y="262" type="line"/>
    </contour>
  </outline>
</glyph>
<glyph name="C" format="2">
  <advance width="684"/>
  <unicode hex="0043"/>
  <anchor x="402" y="-20" name="bottom"/>
  <anchor x="382" y="719" name="top"/>
  <outline>
    <contour>
      <point x="576" y="173" type="line"/>
      <point x="534.407" y="117.495"/>
      <point x="473.007" y="84"/>
      <point x="394.772" y="84" type="curve" smooth="yes"/>
      <point x="266.031" y="84"/>
      <point x="167" y="188.623"/>
      <point x="167" y="365.299" type="curve" smooth="yes"/>
      <point x="167" y="524.208"/>
      <point x="246.225" y="616"/>
      <point x="386.85" y="616" type="curve" smooth="yes"/>
      <point x="462.114" y="616"/>
      <point x="523.513" y="586.989"/>
      <point x="576" y="528" type="curve"/>
      <point x="647" y="599" type="line"/>
      <point x="581" y="681"/>
      <point x="492" y="720"/>
      <point x="379" y="720" type="curve" smooth="yes"/>
      <point x="166" y="720"/>
      <point x="43" y="581"/>
      <point x="43" y="365" type="curve" smooth="yes"/>
      <point x="43" y="135"/>
      <point x="182" y="-20"/>
      <point x="387" y="-20" type="curve" smooth="yes"/>
      <point x="488" y="-20"/>
      <point x="572" y="18"/>
      <point x="647" y="102" type="curve"/>
    </contour>
  </outline>
</glyph>
<glyph name="F" format="2">
  <advance width="510"/>
  <unicode hex="0046"/>
  <anchor x="260" y="719" name="top"/>
  <anchor x="271" y="-20" name="bottom"/>
  <outline>
    <contour>
      <point x="64" y="0" type="line"/>
      <point x="184" y="0" type="line" name="ab01"/>
      <point x="184" y="300" type="line" name="dv01"/>
      <point x="433" y="300" type="line"/>
      <point x="433" y="400" type="line"/>
      <point x="184" y="400" type="line" name="dv02"/>
      <point x="184" y="600" type="line" name="sv01"/>
      <point x="478" y="600" type="line"/>
      <point x="478" y="700" type="line" name="at01"/>
      <point x="64" y="700" type="line" name="dh01"/>
    </contour>
  </outline>
</glyph>
<glyph name="G" format="2">
  <advance width="776"/>
  <unicode hex="0047"/>
  <anchor x="383" y="719" name="top"/>
  <anchor x="383" y="-20" name="bottom"/>
  <outline>
    <contour>
      <point x="607" y="0" type="line"/>
      <point x="711" y="0" type="line"/>
      <point x="711" y="376" type="line" name="dv06"/>
      <point x="341" y="376" type="line" name="av02"/>
      <point x="341" y="276" type="line" name="av03"/>
      <point x="607" y="276" type="line" name="dv05"/>
    </contour>
    <contour>
      <point x="631" y="243" type="curve"/>
      <point x="607" y="303" type="line" name="dv07"/>
      <point x="607" y="169.824"/>
      <point x="519.793" y="84"/>
      <point x="377.09" y="84" type="curve" smooth="yes" name="dv02"/>
      <point x="240.458" y="84"/>
      <point x="167" y="177.061"/>
      <point x="167" y="350.156" type="curve" smooth="yes"/>
      <point x="167" y="549.903"/>
      <point x="255.174" y="616"/>
      <point x="395.856" y="616" type="curve" smooth="yes"/>
      <point x="475.114" y="616"/>
      <point x="538.52" y="586.989"/>
      <point x="594" y="528" type="curve"/>
      <point x="665" y="599" type="line"/>
      <point x="597" y="681"/>
      <point x="495" y="720"/>
      <point x="379" y="720" type="curve" smooth="yes"/>
      <point x="172" y="720"/>
      <point x="43" y="597"/>
      <point x="43" y="350" type="curve" smooth="yes"/>
      <point x="43" y="105"/>
      <point x="179" y="-20"/>
      <point x="359" y="-20" type="curve" smooth="yes" name="dv01"/>
      <point x="553" y="-20"/>
      <point x="631" y="124"/>
    </contour>
  </outline>
</glyph>
<glyph name="a" format="2">
  <advance width="606"/>
  <unicode hex="0061"/>
  <anchor x="294" y="520" name="top"/>
  <anchor x="294" y="-20" name="bottom"/>
  <anchor x="527" y="-2" name="ogonek"/>
  <outline>
    <contour>
      <point x="413" y="0" type="line" name="ab01"/>
      <point x="533" y="0" type="line" name="sh01"/>
      <point x="533" y="500" type="line" name="av01"/>
      <point x="413" y="500" type="line"/>
    </contour>
    <contour>
      <point x="244" y="-20" type="curve" smooth="yes" name="dv01"/>
      <point x="368" y="-20"/>
      <point x="435" y="78"/>
      <point x="435" y="248" type="curve" smooth="yes"/>
      <point x="435" y="422"/>
      <point x="365" y="520"/>
      <point x="235" y="520" type="curve" smooth="yes" name="at01"/>
      <point x="98" y="520"/>
      <point x="21" y="411"/>
      <point x="21" y="259" type="curve" smooth="yes"/>
      <point x="21" y="99"/>
      <point x="107" y="-20"/>
    </contour>
    <contour>
      <point x="272" y="70" type="curve" smooth="yes" name="dv02"/>
      <point x="192" y="70"/>
      <point x="141" y="143.203"/>
      <point x="141" y="256.518" type="curve" smooth="yes"/>
      <point x="141" y="365.822"/>
      <point x="189" y="430"/>
      <point x="269" y="430" type="curve" smooth="yes" name="sv01"/>
      <point x="354" y="430"/>
      <point x="413" y="357.799"/>
      <point x="413" y="253.51" type="curve" smooth="yes"/>
      <point x="413" y="151.226"/>
      <point x="356" y="70"/>
    </contour>
  </outline>
</glyph>
<glyph name="c" format="2">
  <advance width="545"/>
  <unicode hex="0063"/>
  <anchor x="303" y="520" name="top"/>
  <anchor x="303" y="-20" name="bottom"/>
  <outline>
    <contour>
      <point x="448" y="138" type="line"/>
      <point x="418" y="95.373"/>
      <point x="350" y="70"/>
      <point x="299" y="70" type="curve" name="dv02"/>
      <point x="191" y="68.997"/>
      <point x="170" y="167.544"/>
      <point x="170" y="255.029" type="curve" smooth="yes"/>
      <point x="170" y="373.688"/>
      <point x="211" y="430"/>
      <point x="297" y="430" type="curve" smooth="yes" name="sv01"/>
      <point x="352" y="430"/>
      <point x="410" y="406.657"/>
      <point x="442" y="362" type="curve"/>
      <point x="510" y="430" type="line"/>
      <point x="468" y="483"/>
      <point x="392" y="520"/>
      <point x="294" y="520" type="curve" smooth="yes" name="at01"/>
      <point x="138" y="520"/>
      <point x="50" y="421"/>
      <point x="50" y="255" type="curve" smooth="yes"/>
      <point x="50" y="79"/>
      <point x="138" y="-20"/>
      <point x="293" y="-20" type="curve" smooth="yes" name="dv01"/>
      <point x="393" y="-20"/>
      <point x="474" y="17"/>
      <point x="516" y="70" type="curve"/>
    </contour>
  </outline>
</glyph>
<glyph name="n" format="2">
  <advance width="606"/>
  <unicode hex="006E"/>
  <anchor x="308" y="520" name="top"/>
  <anchor x="308" y="-20" name="bottom"/>
  <outline>
    <contour>
      <point x="431" y="0" type="line" name="ab01"/>
      <point x="551" y="0" type="line"/>
      <point x="551" y="314" type="line" smooth="yes"/>
      <point x="551" y="458"/>
      <point x="480.148" y="520"/>
      <point x="370.168" y="520" type="curve" smooth="yes" name="at01"/>
      <point x="271.821" y="520"/>
      <point x="190.394" y="452"/>
      <point x="176" y="355" type="curve"/>
      <point x="177" y="280" type="line"/>
      <point x="184" y="217" type="line" name="iv01"/>
      <point x="184" y="345.204"/>
      <point x="236.229" y="430"/>
      <point x="331.982" y="430" type="curve" smooth="yes" name="sv01"/>
      <point x="396.181" y="430"/>
      <point x="431" y="399.86"/>
      <point x="431" y="291.355" type="curve" smooth="yes"/>
    </contour>
    <contour>
      <point x="64" y="0" type="line" name="ab01"/>
      <point x="184" y="0" type="line" name="sh01"/>
      <point x="184" y="500" type="line" name="av01"/>
      <point x="64" y="500" type="line"/>
    </contour>
  </outline>
</glyph>
<glyph name="u" format="2">
  <advance width="580"/>
  <unicode hex="0075"/>
  <anchor x="391" y="-2" name="ogonek"/>
  <anchor x="290" y="520" name="top"/>
  <anchor x="290" y="-20" name="bottom"/>
  <outline>
    <contour>
      <point x="66" y="500" type="line" name="av01"/>
      <point x="66" y="185" type="line" smooth="yes"/>
      <point x="66" y="62"/>
      <point x="149" y="-20"/>
      <point x="290" y="-20" type="curve" smooth="yes" name="dv01"/>
      <point x="432" y="-20"/>
      <point x="513" y="65"/>
      <point x="513" y="185" type="curve" smooth="yes"/>
      <point x="513" y="500" type="line" name="av02"/>
      <point x="393" y="500" type="line"/>
      <point x="393" y="198.298" type="line" smooth="yes"/>
      <point x="393" y="109.091"/>
      <point x="356" y="70"/>
      <point x="291" y="70" type="curve" smooth="yes" name="dv02"/>
      <point x="227" y="70"/>
      <point x="186" y="106.084"/>
      <point x="186" y="198.298" type="curve" smooth="yes"/>
      <point x="186" y="500" type="line"/>
    </contour>
  </outline>
</glyph>
<glyph name="w" format="2">
  <advance width="854"/>
  <unicode hex="0077"/>
  <anchor x="427" y="520" name="top"/>
  <anchor x="427" y="-20" name="bottom"/>
  <outline>
    <contour>
      <point x="209" y="0" type="line"/>
      <point x="315" y="0" type="line"/>
      <point x="427" y="385" type="line"/>
      <point x="539" y="0" type="line"/>
      <point x="645" y="0" type="line"/>
      <point x="827" y="500" type="line"/>
      <point x="698" y="500" type="line"/>
      <point x="585" y="148" type="line"/>
      <point x="477" y="500" type="line"/>
      <point x="377" y="500" type="line"/>
      <point x="269" y="148" type="line"/>
      <point x="156" y="500" type="line"/>
      <point x="27" y="500" type="line"/>
    </contour>
  </outline>
</glyph>
<glyph name="copyright" format="2">
  <advance width="817"/>
  <unicode hex="00A9"/>
  <outline>
    <contour>
      <point x="44" y="357" type="curve" smooth="yes"/>
      <point x="44" y="137"/>
      <point x="233" y="12"/>
      <point x="411" y="12" type="curve" smooth="yes"/>
      <point x="589" y="12"/>
      <point x="773" y="138"/>
      <point x="773" y="357" type="curve" smooth="yes"/>
      <point x="773" y="572"/>
      <point x="596" y="688"/>
      <point x="411" y="688" type="curve" smooth="yes"/>
      <point x="227" y="688"/>
      <point x="44" y="573"/>
    </contour>
    <contour>
      <point x="104" y="358" type="curve" smooth="yes"/>
      <point x="104" y="513"/>
      <point x="231" y="628"/>
      <point x="408" y="628" type="curve" smooth="yes"/>
      <point x="585" y="628"/>
      <point x="713" y="514"/>
      <point x="713" y="354" type="curve" smooth="yes"/>
      <point x="713" y="186"/>
      <point x="573" y="72"/>
      <point x="411" y="72" type="curve" smooth="yes"/>
      <point x="243" y="72"/>
      <point x="104" y="195"/>
    </contour>
    <contour>
      <point x="517.775" y="269.924" type="line"/>
      <point x="495.093" y="243.75"/>
      <point x="443.68" y="228.366"/>
      <point x="405.121" y="228.149" type="curve" smooth="yes" name="dv02"/>
      <point x="323.464" y="227.672"/>
      <point x="307.588" y="295.08"/>
      <point x="307.588" y="355.117" type="curve" smooth="yes"/>
      <point x="307.588" y="436.548"/>
      <point x="338.619" y="475.193"/>
      <point x="403.709" y="475.193" type="curve" smooth="yes" name="sv01"/>
      <point x="445.337" y="475.193"/>
      <point x="489.235" y="460.1"/>
      <point x="513.454" y="431.226" type="curve"/>
      <point x="562.421" y="480.193" type="line"/>
      <point x="532.177" y="519.648"/>
      <point x="477.45" y="547.193"/>
      <point x="406.88" y="547.193" type="curve" smooth="yes" name="at01"/>
      <point x="294.545" y="547.193"/>
      <point x="231.176" y="475.501"/>
      <point x="231.176" y="355.291" type="curve" smooth="yes"/>
      <point x="231.176" y="227.84"/>
      <point x="294.545" y="156.149"/>
      <point x="406.16" y="156.149" type="curve" smooth="yes" name="dv01"/>
      <point x="478.17" y="156.149"/>
      <point x="536.498" y="182.792"/>
      <point x="566.742" y="220.957" type="curve"/>
    </contour>
  </outline>
</glyph>
<glyph name="eth" format="2">
  <advance width="578"/>
  <unicode hex="00F0"/>
  <outline>
    <contour>
      <point x="538" y="273.129" type="curve" smooth="yes"/>
      <point x="538" y="518.741"/>
      <point x="353.801" y="650.599"/>
      <point x="154" y="748" type="curve"/>
      <point x="113" y="671" type="line"/>
      <point x="217.307" y="625.214"/>
      <point x="385.175" y="521.111"/>
      <point x="437.179" y="370.109" type="curve"/>
      <point x="409.768" y="426.019"/>
      <point x="350.989" y="471"/>
      <point x="264.872" y="471" type="curve" smooth="yes"/>
      <point x="138.327" y="471"/>
      <point x="34" y="377"/>
      <point x="34" y="230" type="curve" smooth="yes"/>
      <point x="34" y="85"/>
      <point x="135.189" y="-20"/>
      <point x="286" y="-20" type="curve" smooth="yes"/>
      <point x="433.892" y="-20"/>
      <point x="538" y="87.939"/>
    </contour>
    <contour>
      <point x="283.151" y="71" type="curve" smooth="yes"/>
      <point x="206.23" y="71"/>
      <point x="154" y="127"/>
      <point x="154" y="225" type="curve" smooth="yes"/>
      <point x="154" y="321"/>
      <point x="203.381" y="381"/>
      <point x="286" y="381" type="curve" smooth="yes"/>
      <point x="363.871" y="381"/>
      <point x="418" y="327"/>
      <point x="418" y="231" type="curve" smooth="yes"/>
      <point x="418" y="138"/>
      <point x="366.719" y="71"/>
    </contour>
    <contour>
      <point x="276.035" y="620.016" type="line"/>
      <point x="117" y="559" type="line"/>
      <point x="135" y="517" type="line"/>
      <point x="309.935" y="593.964" type="line"/>
      <point x="467" y="654" type="line"/>
      <point x="449" y="697" type="line"/>
    </contour>
  </outline>
</glyph>
<glyph name="eogonek" format="2">
  <advance width="598"/>
  <unicode hex="0119"/>
  <anchor x="299" y="520" name="top"/>
  <anchor x="299" y="-20" name="bottom"/>
  <outline>
    <contour>
      <point x="172" y="307" type="line" name="sv02"/>
      <point x="181" y="385.639"/>
      <point x="232.207" y="430"/>
      <point x="303.496" y="430" type="curve" smooth="yes" name="sv01"/>
      <point x="373.78" y="430"/>
      <point x="418.963" y="385.639"/>
      <point x="428" y="307" type="curve" name="dv04"/>
    </contour>
    <contour>
      <point x="459" y="138" type="line"/>
      <point x="427.893" y="94.358"/>
      <point x="363.672" y="70"/>
      <point x="303.466" y="70" type="curve" smooth="yes" name="dv02"/>
      <point x="213.155" y="70"/>
      <point x="168" y="125.353"/>
      <point x="168" y="227" type="curve" name="sv04"/>
      <point x="551" y="227" type="line" name="dv03"/>
      <point x="551" y="424"/>
      <point x="462" y="520"/>
      <point x="305" y="520" type="curve" smooth="yes" name="at01"/>
      <point x="151" y="520"/>
      <point x="48" y="427"/>
      <point x="48" y="251" type="curve" smooth="yes" name="sv03"/>
      <point x="48" y="72"/>
      <point x="154" y="-20"/>
      <point x="310" y="-20" type="curve" smooth="yes" name="dv01"/>
      <point x="409" y="-20"/>
      <point x="485" y="17"/>
      <point x="527" y="70" type="curve"/>
    </contour>
    <contour>
      <point x="428" y="-182" type="line"/>
      <point x="384" y="-168"/>
      <point x="362" y="-137"/>
      <point x="362" y="-103" type="curve" smooth="yes"/>
      <point x="362" y="-66"/>
      <point x="387" y="-24"/>
      <point x="427" y="0" type="curve"/>
      <point x="404" y="3" type="line"/>
      <point x="321" y="-13"/>
      <point x="269" y="-55"/>
      <point x="269" y="-109" type="curve" smooth="yes"/>
      <point x="269" y="-158"/>
      <point x="313" y="-195"/>
      <point x="381" y="-205" type="curve"/>
    </contour>
  </outline>
</glyph>
<glyph name="Hbar" format="2">
  <advance width="737"/>
  <unicode hex="0126"/>
  <outline>
    <contour>
      <point x="88" y="0" type="line" name="ab01"/>
      <point x="208" y="0" type="line"/>
      <point x="208" y="320" type="line" name="dv01"/>
      <point x="530" y="320" type="line"/>
      <point x="530" y="0" type="line" name="ab02"/>
      <point x="650" y="0" type="line"/>
      <point x="650" y="700" type="line" name="at01"/>
      <point x="530" y="700" type="line"/>
      <point x="530" y="420" type="line"/>
      <point x="208" y="420" type="line" name="dv02"/>
      <point x="208" y="700" type="line" name="at02"/>
      <point x="88" y="700" type="line"/>
    </contour>
    <contour>
      <point x="0.27" y="514" type="line"/>
      <point x="737.266" y="514" type="line"/>
      <point x="737.266" y="548" type="line"/>
      <point x="0.27" y="548" type="line"/>
    </contour>
  </outline>
</glyph>
<glyph name="schwa" format="2">
  <advance width="613"/>
  <unicode hex="0259"/>
  <anchor x="306" y="520" name="top"/>
  <anchor x="306" y="-20" name="bottom"/>
  <outline>
    <contour>
      <point x="433" y="214" type="line" name="dv03"/>
      <point x="425" y="120.35"/>
      <point x="379" y="70"/>
      <point x="303" y="70" type="curve" smooth="yes" name="dv02"/>
      <point x="226" y="70"/>
      <point x="179" y="122"/>
      <point x="171" y="214" type="curve" name="ah01"/>
    </contour>
    <contour>
      <point x="153" y="362" type="line" name="sh03"/>
      <point x="186.422" y="406.657"/>
      <point x="247" y="430"/>
      <point x="298" y="430" type="curve" smooth="yes" name="sv01"/>
      <point x="378" y="430"/>
      <point x="428.211" y="374.593"/>
      <point x="431" y="294" type="curve" name="sh04"/>
      <point x="53" y="294" type="line" name="dv05"/>
      <point x="51" y="279"/>
      <point x="50" y="270" name=".sh01"/>
      <point x="50" y="253" type="curve" smooth="yes" name="at01"/>
      <point x="50" y="84"/>
      <point x="147" y="-20" name=".at01"/>
      <point x="301" y="-20" type="curve" smooth="yes" name="sh02"/>
      <point x="458" y="-20"/>
      <point x="554" y="89"/>
      <point x="554" y="256" type="curve" smooth="yes" name="dv01"/>
      <point x="554" y="421"/>
      <point x="460" y="520"/>
      <point x="301" y="520" type="curve" smooth="yes" name="sh01"/>
      <point x="203" y="520"/>
      <point x="127" y="483"/>
      <point x="85" y="430" type="curve" name="dv04"/>
    </contour>
  </outline>
</glyph>
<glyph name="ogonek" format="2">
  <advance width="209"/>
  <unicode hex="02DB"/>
  <outline>
    <contour>
      <point x="196" y="-180" type="line"/>
      <point x="152" y="-166"/>
      <point x="130" y="-135"/>
      <point x="130" y="-101" type="curve" smooth="yes"/>
      <point x="130" y="-64"/>
      <point x="155" y="-22"/>
      <point x="195" y="2" type="curve"/>
      <point x="172" y="5" type="line"/>
      <point x="89" y="-11"/>
      <point x="37" y="-53"/>
      <point x="37" y="-107" type="curve" smooth="yes"/>
      <point x="37" y="-156"/>
      <point x="81" y="-193"/>
      <point x="149" y="-203" type="curve"/>
    </contour>
  </outline>
</glyph>
<glyph name="cedillacomb" format="2">
  <advance width="302"/>
  <unicode hex="0327"/>
  <anchor x="171" y="-10" name="_bottom"/>
  <anchor x="151" y="-208" name="bottom"/>
  <outline>
    <contour>
      <point x="44" y="-195" type="line"/>
      <point x="70" y="-201"/>
      <point x="99" y="-208"/>
      <point x="140" y="-208" type="curve" smooth="yes"/>
      <point x="223" y="-208"/>
      <point x="270" y="-179"/>
      <point x="270" y="-126" type="curve" smooth="yes"/>
      <point x="270" y="-79"/>
      <point x="234" y="-54"/>
      <point x="174" y="-54" type="curve"/>
      <point x="216.784" y="23.546" type="line"/>
      <point x="143.784" y="23.546" type="line"/>
      <point x="91" y="-80" type="line"/>
      <point x="106" y="-78"/>
      <point x="117" y="-76"/>
      <point x="130" y="-76" type="curve" smooth="yes"/>
      <point x="165" y="-76"/>
      <point x="186" y="-91"/>
      <point x="186" y="-120" type="curve" smooth="yes"/>
      <point x="186" y="-148"/>
      <point x="166" y="-167"/>
      <point x="130" y="-167" type="curve" smooth="yes"/>
      <point x="112" y="-167"/>
      <point x="84" y="-162"/>
      <point x="63" y="-156" type="curve"/>
    </contour>
  </outline>
</glyph>
<glyph name="xi" format="2">
  <advance width="520"/>
  <unicode hex="03BE"/>
  <outline>
    <contour>
      <point x="416" y="610" type="line"/>
      <point x="416" y="700" type="line"/>
      <point x="73" y="700" type="line"/>
      <point x="73" y="610" type="line"/>
    </contour>
    <contour>
      <point x="447.852" y="-200" type="line"/>
      <point x="466.494" y="-181.07"/>
      <point x="487" y="-143.21"/>
      <point x="487" y="-94.391" type="curve" smooth="yes"/>
      <point x="487" y="0.258"/>
      <point x="407" y="70"/>
      <point x="271" y="70" type="curve" smooth="yes"/>
      <point x="194" y="70"/>
      <point x="161" y="100.02"/>
      <point x="161" y="153.199" type="curve" smooth="yes"/>
      <point x="161" y="241.545"/>
      <point x="251" y="281"/>
      <point x="414" y="281" type="curve"/>
      <point x="414" y="361" type="line"/>
      <point x="271" y="361"/>
      <point x="196" y="400.316"/>
      <point x="196" y="473.907" type="curve" smooth="yes"/>
      <point x="196" y="556.571"/>
      <point x="263" y="597.903"/>
      <point x="415" y="610" type="curve"/>
      <point x="409" y="642" type="line"/>
      <point x="179" y="628.869"/>
      <point x="76" y="561.192"/>
      <point x="76" y="468.263" type="curve" smooth="yes"/>
      <point x="76" y="393.515"/>
      <point x="132" y="342"/>
      <point x="249" y="324" type="curve"/>
      <point x="118" y="320"/>
      <point x="41" y="252.718"/>
      <point x="41" y="151.346" type="curve" smooth="yes"/>
      <point x="41" y="48.179"/>
      <point x="118.531" y="-20"/>
      <point x="270.491" y="-20" type="curve" smooth="yes"/>
      <point x="345.954" y="-20"/>
      <point x="378" y="-53"/>
      <point x="378" y="-98" type="curve" smooth="yes"/>
      <point x="378" y="-143"/>
      <point x="361" y="-166"/>
      <point x="336" y="-200" type="curve"/>
    </contour>
  </outline>
</glyph>
<glyph name="tau" format="2">
  <advance width="421"/>
  <unicode hex="03C4"/>
  <anchor x="210" y="520" name="topgr"/>
  <outline>
    <contour>
      <point x="38" y="410" type="line"/>
      <point x="376" y="410" type="line"/>
      <point x="376" y="500" type="line"/>
      <point x="38" y="500" type="line"/>
    </contour>
    <contour>
      <point x="319" y="90" type="line"/>
      <point x="268" y="90"/>
      <point x="258" y="95"/>
      <point x="258" y="157" type="curve" smooth="yes"/>
      <point x="258" y="500" type="line"/>
      <point x="138" y="500" type="line"/>
      <point x="138" y="153" type="line" smooth="yes"/>
      <point x="138" y="47"/>
      <point x="178" y="0"/>
      <point x="285" y="0" type="curve" smooth="yes"/>
      <point x="319" y="0" type="line"/>
    </contour>
  </outline>
</glyph>
<glyph name="Pecyr" format="2">
  <advance width="680"/>
  <unicode hex="041F"/>
  <anchor x="340" y="-20" name="bottom"/>
  <anchor x="340" y="719" name="top"/>
  <outline>
    <contour>
      <point x="77" y="0" type="line"/>
      <point x="197" y="0" type="line"/>
      <point x="197" y="600" type="line"/>
      <point x="483" y="600" type="line"/>
      <point x="483" y="0" type="line"/>
      <point x="603" y="0" type="line"/>
      <point x="603" y="700" type="line"/>
      <point x="77" y="700" type="line"/>
    </contour>
  </outline>
</glyph>
<glyph name="gecyr" format="2">
  <advance width="431"/>
  <unicode hex="0433"/>
  <anchor x="231" y="520" name="top"/>
  <anchor x="231" y="-20" name="bottom"/>
  <outline>
    <contour>
      <point x="74" y="0" type="line"/>
      <point x="194" y="0" type="line"/>
      <point x="194" y="410" type="line"/>
      <point x="394" y="410" type="line"/>
      <point x="394" y="500" type="line"/>
      <point x="74" y="500" type="line"/>
    </contour>
  </outline>
</glyph>
<glyph name="decyr" format="2">
  <advance width="760"/>
  <unicode hex="0434"/>
  <anchor x="399" y="-20" name="bottom"/>
  <anchor x="400" y="520" name="top"/>
  <outline>
    <contour>
      <point x="120" y="-140" type="line"/>
      <point x="121" y="-107"/>
      <point x="107" y="0"/>
      <point x="166" y="0" type="curve" smooth="yes"/>
      <point x="586" y="0" type="line" smooth="yes"/>
      <point x="657" y="0"/>
      <point x="638" y="-102"/>
      <point x="638" y="-140" type="curve"/>
      <point x="725" y="-140" type="line"/>
      <point x="725" y="52"/>
      <point x="704" y="99"/>
      <point x="604" y="99" type="curve"/>
      <point x="604" y="500" type="line"/>
      <point x="205" y="500" type="line"/>
      <point x="205" y="325" type="line" smooth="yes"/>
      <point x="205" y="196"/>
      <point x="193" y="132"/>
      <point x="168" y="101" type="curve"/>
      <point x="68" y="101"/>
      <point x="34" y="57"/>
      <point x="34" y="-140" type="curve"/>
    </contour>
    <contour>
      <point x="232" y="100" type="line"/>
      <point x="302.794" y="119.942"/>
      <point x="325" y="176.349"/>
      <point x="325" y="400" type="curve"/>
      <point x="484" y="400" type="line"/>
      <point x="484" y="100" type="line"/>
    </contour>
  </outline>
</glyph>
<glyph name="austral" format="2">
  <advance width="718"/>
  <unicode hex="20B3"/>
  <outline>
    <contour>
      <point x="13" y="143" type="line"/>
      <point x="705" y="143" type="line"/>
      <point x="705" y="196" type="line"/>
      <point x="13" y="196" type="line"/>
    </contour>
    <contour>
      <point x="13" y="282" type="line"/>
      <point x="705" y="282" type="line"/>
      <point x="705" y="335" type="line"/>
      <point x="13" y="335" type="line"/>
    </contour>
    <contour>
      <point x="378.5" y="700" type="line"/>
      <point x="280.5" y="700" type="line"/>
      <point x="53.5" y="0" type="line"/>
      <point x="169.5" y="0" type="line"/>
    </contour>
    <contour>
      <point x="437.5" y="700" type="line"/>
      <point x="339.5" y="700" type="line"/>
      <point x="548.5" y="0" type="line"/>
      <point x="664.5" y="0" type="line"/>
    </contour>
  </outline>
</glyph>
<glyph name="Eng.ss07" format="2">
  <advance width="732"/>
  <anchor x="366" y="719" name="top"/>
  <anchor x="363" y="-214" name="bottom"/>
  <outline>
    <contour>
      <point x="77" y="0" type="line"/>
      <point x="197" y="0" type="line" name="ab01"/>
      <point x="197" y="515" type="line" name="iv01"/>
      <point x="545" y="0" type="line" name="ab02"/>
      <point x="655" y="95.157" type="line"/>
      <point x="655" y="700" type="line" name="at01"/>
      <point x="535" y="700" type="line"/>
      <point x="535" y="185" type="line" name="iv02"/>
      <point x="187" y="700" type="line" name="at02"/>
      <point x="77" y="700" type="line"/>
    </contour>
    <contour>
      <point x="349" y="-231" type="line"/>
      <point x="574" y="-231"/>
      <point x="655" y="-153"/>
      <point x="655" y="61" type="curve" smooth="yes"/>
      <point x="655" y="613" type="line"/>
      <point x="535" y="613" type="line"/>
      <point x="535" y="37" type="line" smooth="yes"/>
      <point x="535" y="-92"/>
      <point x="484" y="-131"/>
      <point x="349" y="-131" type="curve"/>
    </contour>
  </outline>
</glyph>
<glyph name="G.ss10" format="2">
  <advance width="780"/>
  <anchor x="384" y="-19" name="bottom"/>
  <anchor x="384" y="719" name="top"/>
  <outline>
    <contour>
      <point x="353" y="261" type="line"/>
      <point x="612" y="261" type="line"/>
      <point x="677" y="0" type="line"/>
      <point x="707" y="0" type="line"/>
      <point x="707" y="351" type="line"/>
      <point x="353" y="351" type="line"/>
    </contour>
    <contour>
      <point x="600" y="344" type="line"/>
      <point x="600" y="339.985"/>
      <point x="601" y="327.939"/>
      <point x="601" y="313.886" type="curve" smooth="yes"/>
      <point x="601" y="181.384"/>
      <point x="514" y="80"/>
      <point x="390" y="80" type="curve" smooth="yes"/>
      <point x="253.8" y="80"/>
      <point x="163" y="192.416"/>
      <point x="163" y="361.041" type="curve" smooth="yes"/>
      <point x="163" y="516.617"/>
      <point x="246" y="620"/>
      <point x="392" y="620" type="curve" smooth="yes"/>
      <point x="493" y="620"/>
      <point x="568" y="577.731"/>
      <point x="641" y="463" type="curve"/>
      <point x="680" y="591" type="line"/>
      <point x="613" y="675"/>
      <point x="510" y="720"/>
      <point x="385" y="720" type="curve" smooth="yes"/>
      <point x="172" y="720"/>
      <point x="43" y="565"/>
      <point x="43" y="355" type="curve" smooth="yes"/>
      <point x="43" y="130"/>
      <point x="175.4" y="-20"/>
      <point x="374" y="-20" type="curve" smooth="yes"/>
      <point x="523" y="-20"/>
      <point x="608" y="81"/>
      <point x="638" y="229" type="curve"/>
    </contour>
  </outline>
</glyph>
<glyph name="G.ss14" format="2">
  <advance width="765"/>
  <anchor x="381" y="-19" name="bottom"/>
  <anchor x="381" y="719" name="top"/>
  <outline>
    <contour>
      <point x="367" y="261" type="line" name="dv05"/>
      <point x="597" y="261" type="line" name="sv02"/>
      <point x="585.924" y="133.294"/>
      <point x="516.432" y="80"/>
      <point x="396.607" y="80" type="curve" smooth="yes" name="dv04"/>
      <point x="263.693" y="80"/>
      <point x="163" y="186.394"/>
      <point x="163" y="351.004" type="curve" smooth="yes" name="dv07"/>
      <point x="163" y="515.613"/>
      <point x="243.521" y="620"/>
      <point x="391.477" y="620" type="curve" smooth="yes"/>
      <point x="493.134" y="620"/>
      <point x="554.531" y="576.721"/>
      <point x="627" y="465" type="curve"/>
      <point x="666" y="593" type="line"/>
      <point x="597.671" y="675"/>
      <point x="505.226" y="720"/>
      <point x="389.669" y="720" type="curve" smooth="yes"/>
      <point x="175.639" y="720"/>
      <point x="43" y="567"/>
      <point x="43" y="351" type="curve" smooth="yes" name="dv08"/>
      <point x="43" y="138"/>
      <point x="170.656" y="-20"/>
      <point x="374.704" y="-20" type="curve" smooth="yes" name="dv03"/>
      <point x="552.618" y="-20"/>
      <point x="625" y="119.634"/>
      <point x="625" y="320.107" type="curve" smooth="yes" name="sv03"/>
      <point x="625" y="361" type="line" name="sv01"/>
      <point x="367" y="361" type="line" name="dv06"/>
    </contour>
    <contour>
      <point x="597" y="0" type="line"/>
      <point x="698" y="0" type="line"/>
      <point x="698" y="361" type="line"/>
      <point x="597" y="361" type="line"/>
    </contour>
  </outline>
</glyph>
<glyph name="Q.ss06" format="2">
  <advance width="775"/>
  <anchor x="388" y="719" name="top"/>
  <anchor x="388" y="-20" name="bottom"/>
  <anchor x="513" y="-1" name="ogonek"/>
  <outline>
    <contour>
      <point x="390.938" y="84" type="curve" smooth="yes" name="dv02"/>
      <point x="252.45" y="84"/>
      <point x="167" y="183.84"/>
      <point x="167" y="349.967" type="curve" smooth="yes"/>
      <point x="167" y="518.071"/>
      <point x="245.575" y="616"/>
      <point x="383.08" y="616" type="curve" smooth="yes" name="dv03"/>
      <point x="524.514" y="616"/>
      <point x="608" y="520.126"/>
      <point x="608" y="350.045" type="curve" smooth="yes" name="dv05"/>
      <point x="608" y="184.907"/>
      <point x="527.461" y="84"/>
    </contour>
    <contour>
      <point x="387" y="-20" type="curve" smooth="yes" name="dv01"/>
      <point x="589" y="-20"/>
      <point x="732" y="107"/>
      <point x="732" y="350" type="curve" smooth="yes" name="dv06"/>
      <point x="732" y="575"/>
      <point x="602" y="720"/>
      <point x="388" y="720" type="curve" smooth="yes" name="dv04"/>
      <point x="182" y="720"/>
      <point x="43" y="586"/>
      <point x="43" y="350" type="curve" smooth="yes"/>
      <point x="43" y="109"/>
      <point x="186" y="-20"/>
    </contour>
    <contour>
      <point x="290.442" y="102.671" type="line"/>
      <point x="312.442" y="144.671"/>
      <point x="345.442" y="169.671"/>
      <point x="373.595" y="169.671" type="curve" smooth="yes"/>
      <point x="411.285" y="169.671"/>
      <point x="427.74" y="124.863"/>
      <point x="447.974" y="69.765" type="curve" smooth="yes"/>
      <point x="480.268" y="-18.176"/>
      <point x="522.189" y="-132.329"/>
      <point x="675.442" y="-132.329" type="curve"/>
      <point x="675.442" y="-32.329" type="line"/>
      <point x="596.708" y="-32.329"/>
      <point x="577.296" y="23.667"/>
      <point x="557.464" y="80.874" type="curve" smooth="yes"/>
      <point x="536.754" y="140.612"/>
      <point x="515.587" y="201.671"/>
      <point x="425.933" y="201.671" type="curve" smooth="yes"/>
      <point x="346.442" y="201.671"/>
      <point x="308.405" y="153.671"/>
      <point x="283.442" y="106.671" type="curve"/>
    </contour>
  </outline>
</glyph>
<glyph name="Schwa.ss09" format="2">
  <advance width="759"/>
  <anchor x="380" y="719" name="top"/>
  <anchor x="380" y="-20" name="bottom"/>
  <outline>
    <contour>
      <point x="47" y="408" type="line" name="sh04"/>
      <point x="45.25" y="393"/>
      <point x="43.5" y="371"/>
      <point x="43.5" y="356" type="curve" smooth="yes" name="sh01"/>
      <point x="43.5" y="129"/>
      <point x="177.4" y="-20"/>
      <point x="380.25" y="-20" type="curve" smooth="yes" name="dv01"/>
      <point x="583.099" y="-20"/>
      <point x="716" y="121"/>
      <point x="716" y="350" type="curve" smooth="yes" name="sh03"/>
      <point x="716" y="573"/>
      <point x="598" y="720"/>
      <point x="384" y="720" type="curve" smooth="yes" name="dv04"/>
      <point x="211" y="720"/>
      <point x="106" y="637"/>
      <point x="59" y="485" type="curve"/>
      <point x="179" y="485" type="line"/>
      <point x="208" y="571"/>
      <point x="285" y="620"/>
      <point x="374" y="620" type="curve" smooth="yes" name="dv03"/>
      <point x="520" y="620"/>
      <point x="597" y="529.82"/>
      <point x="597" y="350.488" type="curve" smooth="yes"/>
      <point x="597" y="185.182"/>
      <point x="516.908" y="80"/>
      <point x="381.752" y="80" type="curve" smooth="yes" name="dv02"/>
      <point x="254.605" y="80"/>
      <point x="173.512" y="166"/>
      <point x="163.5" y="308" type="curve" name="sh02"/>
      <point x="609" y="308" type="line" name="dv05"/>
      <point x="608" y="408" type="line" name="dv06"/>
    </contour>
  </outline>
</glyph>
<glyph name="aogonek.ss10" format="2">
  <advance width="558"/>
  <anchor x="274" y="520" name="top"/>
  <anchor x="274" y="-20" name="bottom"/>
  <outline>
    <contour>
      <point x="363" y="186" type="line" smooth="yes"/>
      <point x="363" y="129"/>
      <point x="305" y="70"/>
      <point x="233" y="70" type="curve" smooth="yes"/>
      <point x="186" y="70"/>
      <point x="155" y="96"/>
      <point x="155" y="137" type="curve" smooth="yes"/>
      <point x="155" y="175"/>
      <point x="183" y="202"/>
      <point x="242" y="202" type="curve" smooth="yes"/>
      <point x="293" y="202"/>
      <point x="344" y="222"/>
      <point x="363" y="253" type="curve"/>
    </contour>
    <contour>
      <point x="484" y="-182" type="line"/>
      <point x="440" y="-168"/>
      <point x="418" y="-137"/>
      <point x="418" y="-103" type="curve" smooth="yes"/>
      <point x="418" y="-66"/>
      <point x="443" y="-34"/>
      <point x="483" y="-10" type="curve"/>
      <point x="483" y="352" type="line" smooth="yes"/>
      <point x="483" y="456"/>
      <point x="403.61" y="520"/>
      <point x="268.55" y="520" type="curve" smooth="yes"/>
      <point x="152.04" y="520"/>
      <point x="84" y="472"/>
      <point x="50" y="426" type="curve"/>
      <point x="81" y="318" type="line"/>
      <point x="147" y="410"/>
      <point x="194.66" y="430"/>
      <point x="257.14" y="430" type="curve" smooth="yes"/>
      <point x="327.04" y="430"/>
      <point x="362" y="405"/>
      <point x="362" y="361" type="curve" smooth="yes"/>
      <point x="362" y="313"/>
      <point x="324" y="281"/>
      <point x="229" y="281" type="curve" smooth="yes"/>
      <point x="111" y="281"/>
      <point x="35" y="232"/>
      <point x="35" y="135" type="curve" smooth="yes"/>
      <point x="35" y="38"/>
      <point x="111" y="-20"/>
      <point x="202" y="-20" type="curve" smooth="yes"/>
      <point x="284.77" y="-20"/>
      <point x="338.26" y="28.78"/>
      <point x="364.88" y="82.53" type="curve"/>
      <point x="465.2" y="3.95" type="line"/>
      <point x="379.18" y="-11.26"/>
      <point x="325" y="-53.88"/>
      <point x="325" y="-109" type="curve" smooth="yes"/>
      <point x="325" y="-158"/>
      <point x="369" y="-195"/>
      <point x="437" y="-205" type="curve"/>
    </contour>
  </outline>
</glyph>
<glyph name="becyr.loclMKD" format="2">
  <advance width="578"/>
  <outline>
    <contour>
      <point x="287" y="70" type="curve" smooth="yes"/>
      <point x="201" y="70"/>
      <point x="160" y="123"/>
      <point x="160" y="224" type="curve" smooth="yes"/>
      <point x="160" y="326"/>
      <point x="202" y="377"/>
      <point x="284" y="377" type="curve" smooth="yes"/>
      <point x="379" y="377"/>
      <point x="418" y="307"/>
      <point x="418" y="219" type="curve" smooth="yes"/>
      <point x="418" y="129"/>
      <point x="377" y="70"/>
    </contour>
    <contour>
      <point x="290" y="-20" type="curve" smooth="yes"/>
      <point x="445" y="-20"/>
      <point x="538" y="75"/>
      <point x="538" y="226" type="curve" smooth="yes"/>
      <point x="538" y="376"/>
      <point x="446" y="467"/>
      <point x="290" y="467" type="curve" smooth="yes"/>
      <point x="129" y="467"/>
      <point x="40" y="369"/>
      <point x="40" y="226" type="curve" smooth="yes"/>
      <point x="40" y="82"/>
      <point x="130" y="-20"/>
    </contour>
    <contour>
      <point x="372.945" y="456.539" type="line"/>
      <point x="248.945" y="488.727"/>
      <point x="200" y="510.375"/>
      <point x="200" y="544.351" type="curve" smooth="yes"/>
      <point x="200" y="589.614"/>
      <point x="223.228" y="603.504"/>
      <point x="302.471" y="612.56" type="curve" smooth="yes"/>
      <point x="500.719" y="635.218" type="line"/>
      <point x="500.719" y="728.793" type="line"/>
      <point x="291.352" y="706.399" type="line" smooth="yes"/>
      <point x="184.042" y="694.922"/>
      <point x="80" y="669.067"/>
      <point x="80" y="569.795" type="curve" smooth="yes"/>
      <point x="80" y="486.795"/>
      <point x="155.589" y="446"/>
      <point x="273.631" y="438" type="curve"/>
    </contour>
  </outline>
</glyph>
<glyph name="e.ss12" format="2">
  <advance width="574"/>
  <anchor x="290" y="520" name="top"/>
  <anchor x="290" y="-20" name="bottom"/>
  <anchor x="396" y="-2" name="ogonek"/>
  <outline>
    <contour>
      <point x="164" y="308" type="line"/>
      <point x="164" y="381"/>
      <point x="216" y="430"/>
      <point x="287" y="430" type="curve" smooth="yes"/>
      <point x="358" y="430"/>
      <point x="404" y="382"/>
      <point x="404" y="308" type="curve"/>
    </contour>
    <contour>
      <point x="530" y="236" type="line"/>
      <point x="530" y="416"/>
      <point x="436" y="520"/>
      <point x="290" y="520" type="curve" smooth="yes"/>
      <point x="138" y="520"/>
      <point x="40" y="410"/>
      <point x="40" y="255" type="curve" smooth="yes"/>
      <point x="40" y="93"/>
      <point x="143" y="-20"/>
      <point x="302.049" y="-20" type="curve" smooth="yes"/>
      <point x="384" y="-20"/>
      <point x="442" y="10"/>
      <point x="501" y="80" type="curve"/>
      <point x="494" y="154" type="line"/>
      <point x="435" y="97"/>
      <point x="376" y="70"/>
      <point x="312.325" y="70" type="curve" smooth="yes"/>
      <point x="219" y="70"/>
      <point x="161" y="128"/>
      <point x="161" y="236" type="curve"/>
    </contour>
  </outline>
</glyph>
<glyph name="elcyr.ss08" format="2">
  <advance width="550"/>
  <outline>
    <contour>
      <point x="25" y="0" type="line"/>
      <point x="154" y="0" type="line"/>
      <point x="275" y="352" type="line"/>
      <point x="396" y="0" type="line"/>
      <point x="525" y="0" type="line"/>
      <point x="333" y="500" type="line"/>
      <point x="217" y="500" type="line"/>
    </contour>
  </outline>
</glyph>
<glyph name="epsilon.ss10" format="2">
  <advance width="480"/>
  <anchor x="240" y="519" name="topgr"/>
  <outline>
    <contour>
      <point x="357" y="218" type="curve"/>
      <point x="357" y="298" type="line"/>
      <point x="196.834" y="298"/>
      <point x="175" y="322"/>
      <point x="175" y="364" type="curve" smooth="yes"/>
      <point x="175" y="403"/>
      <point x="201.887" y="430"/>
      <point x="257.651" y="430" type="curve" smooth="yes"/>
      <point x="314.412" y="430"/>
      <point x="353.248" y="402"/>
      <point x="412" y="318" type="curve"/>
      <point x="443" y="426" type="line"/>
      <point x="399.114" y="485"/>
      <point x="327.301" y="520"/>
      <point x="235.539" y="520" type="curve" smooth="yes"/>
      <point x="110.863" y="520"/>
      <point x="58" y="455"/>
      <point x="58" y="387" type="curve" smooth="yes"/>
      <point x="58" y="320"/>
      <point x="107.718" y="274"/>
      <point x="234" y="260" type="curve"/>
      <point x="110.636" y="251"/>
      <point x="40" y="226"/>
      <point x="40" y="134" type="curve" smooth="yes"/>
      <point x="40" y="40"/>
      <point x="113.817" y="-20"/>
      <point x="234.517" y="-20" type="curve" smooth="yes"/>
      <point x="327.287" y="-20"/>
      <point x="399.109" y="15"/>
      <point x="443" y="74" type="curve"/>
      <point x="412" y="182" type="line"/>
      <point x="353.233" y="98"/>
      <point x="314.387" y="70"/>
      <point x="257.613" y="70" type="curve" smooth="yes"/>
      <point x="207.81" y="70"/>
      <point x="160" y="91"/>
      <point x="160" y="146" type="curve" smooth="yes"/>
      <point x="160" y="188"/>
      <point x="176.87" y="218"/>
    </contour>
  </outline>
</glyph>
<glyph name="ereversedcyr.ss09" format="2">
  <advance width="573"/>
  <anchor x="286" y="520" name="top"/>
  <anchor x="286" y="-20" name="bottom"/>
  <outline>
    <contour>
      <point x="508" y="215" type="line"/>
      <point x="508" y="287" type="line"/>
      <point x="234" y="287" type="line"/>
      <point x="234" y="215" type="line"/>
    </contour>
    <contour>
      <point x="42" y="167" type="line"/>
      <point x="52" y="47"/>
      <point x="140" y="-20"/>
      <point x="270" y="-20" type="curve" smooth="yes"/>
      <point x="433" y="-20"/>
      <point x="533" y="85"/>
      <point x="533" y="255" type="curve" smooth="yes"/>
      <point x="533" y="417"/>
      <point x="437" y="520"/>
      <point x="275" y="520" type="curve" smooth="yes"/>
      <point x="147" y="520"/>
      <point x="59" y="457.667"/>
      <point x="40" y="333" type="curve"/>
      <point x="155" y="333" type="line"/>
      <point x="162" y="389.828"/>
      <point x="211" y="430"/>
      <point x="275" y="430" type="curve" smooth="yes"/>
      <point x="366" y="430"/>
      <point x="413" y="361.62"/>
      <point x="413" y="246.983" type="curve" smooth="yes"/>
      <point x="413" y="134.358"/>
      <point x="361" y="70"/>
      <point x="268" y="70" type="curve" smooth="yes"/>
      <point x="204" y="70"/>
      <point x="160" y="111"/>
      <point x="157" y="167" type="curve"/>
    </contour>
  </outline>
</glyph>
<glyph name="f_eth" format="2">
  <advance width="961"/>
  <outline>
    <contour>
      <point x="921" y="273.12" type="curve" smooth="yes"/>
      <point x="921" y="424.42"/>
      <point x="851.11" y="532.54"/>
      <point x="750.73" y="616.04" type="curve"/>
      <point x="865.69" y="660" type="line"/>
      <point x="847.69" y="703" type="line"/>
      <point x="714.34" y="644.34" type="line"/>
      <point x="612.42" y="718.65"/>
      <point x="490.91" y="755"/>
      <point x="344.36" y="755" type="curve" smooth="yes"/>
      <point x="202.64" y="755"/>
      <point x="126.44" y="703.21"/>
      <point x="124" y="564.54" type="curve"/>
      <point x="124" y="500" type="line" name="dv04"/>
      <point x="32" y="500" type="line"/>
      <point x="32" y="410" type="line"/>
      <point x="124" y="410" type="line" name="dv03"/>
      <point x="124" y="0" type="line" name="ab01"/>
      <point x="244" y="0" type="line"/>
      <point x="244" y="410" type="line" name="sv01"/>
      <point x="380" y="410" type="line"/>
      <point x="380" y="500" type="line" name="sv02"/>
      <point x="244" y="500" type="line"/>
      <point x="244" y="564.11" type="line" smooth="yes"/>
      <point x="244" y="632.13"/>
      <point x="272.13" y="665"/>
      <point x="376" y="665" type="curve" smooth="yes"/>
      <point x="457.71" y="665"/>
      <point x="541.37" y="643.05"/>
      <point x="614.79" y="603.04" type="curve"/>
      <point x="500" y="559" type="line"/>
      <point x="518" y="517" type="line"/>
      <point x="656.19" y="577.79" type="line"/>
      <point x="730.67" y="527.19"/>
      <point x="790.46" y="456.37"/>
      <point x="820.17" y="370.1" type="curve"/>
      <point x="792.76" y="426.01"/>
      <point x="733.98" y="471"/>
      <point x="647.87" y="471" type="curve" smooth="yes"/>
      <point x="521.32" y="471"/>
      <point x="417" y="377"/>
      <point x="417" y="230" type="curve" smooth="yes"/>
      <point x="417" y="85"/>
      <point x="518.16" y="-20"/>
      <point x="669" y="-20" type="curve" smooth="yes"/>
      <point x="816.89" y="-20"/>
      <point x="921" y="87.93"/>
    </contour>
    <contour>
      <point x="666.15" y="71" type="curve" smooth="yes"/>
      <point x="589.23" y="71"/>
      <point x="537" y="127"/>
      <point x="537" y="225" type="curve" smooth="yes"/>
      <point x="537" y="321"/>
      <point x="586.38" y="381"/>
      <point x="669" y="381" type="curve" smooth="yes"/>
      <point x="746.87" y="381"/>
      <point x="801" y="327"/>
      <point x="801" y="231" type="curve" smooth="yes"/>
      <point x="801" y="138"/>
      <point x="749.71" y="71"/>
    </contour>
  </outline>
</glyph>
<glyph name="lira.ss12" format="2">
  <advance width="620"/>
  <outline>
    <contour>
      <point x="41" y="352" type="line"/>
      <point x="465" y="352" type="line"/>
      <point x="465" y="412" type="line"/>
      <point x="41" y="412" type="line"/>
    </contour>
    <contour>
      <point x="41" y="216" type="line"/>
      <point x="465" y="216" type="line"/>
      <point x="465" y="276" type="line"/>
      <point x="41" y="276" type="line"/>
    </contour>
    <contour>
      <point x="37" y="0" type="line"/>
      <point x="587" y="0" type="line"/>
      <point x="587" y="100" type="line"/>
      <point x="157" y="100" type="line"/>
      <point x="212" y="121"/>
      <point x="239" y="178"/>
      <point x="239" y="246" type="curve" smooth="yes"/>
      <point x="239" y="501" type="line" smooth="yes"/>
      <point x="239" y="578"/>
      <point x="283" y="619"/>
      <point x="346" y="619" type="curve" smooth="yes"/>
      <point x="412" y="619"/>
      <point x="486" y="588"/>
      <point x="572" y="510" type="curve"/>
      <point x="581" y="595" type="line"/>
      <point x="510" y="678"/>
      <point x="431" y="720"/>
      <point x="337" y="720" type="curve" smooth="yes"/>
      <point x="194" y="720"/>
      <point x="119" y="623"/>
      <point x="119" y="438" type="curve" smooth="yes"/>
      <point x="119" y="237" type="line" smooth="yes"/>
      <point x="119" y="167"/>
      <point x="83" y="98"/>
      <point x="37" y="70" type="curve"/>
    </contour>
  </outline>
</glyph>
<glyph name="oe.ss10" format="2">
  <advance width="924"/>
  <outline>
    <contour>
      <point x="282.68" y="-20" type="curve" smooth="yes" name="dv01"/>
      <point x="443.96" y="-20"/>
      <point x="521.72" y="79"/>
      <point x="521.72" y="255" type="curve" smooth="yes"/>
      <point x="521.72" y="421"/>
      <point x="443" y="520"/>
      <point x="282.68" y="520" type="curve" smooth="yes" name="at01"/>
      <point x="132.92" y="520"/>
      <point x="43.64" y="421"/>
      <point x="43.64" y="255" type="curve" smooth="yes"/>
      <point x="43.64" y="79"/>
      <point x="133.88" y="-20"/>
    </contour>
    <contour>
      <point x="282.68" y="70" type="curve" smooth="yes" name="dv02"/>
      <point x="203" y="70"/>
      <point x="158.84" y="132.346"/>
      <point x="158.84" y="255.028" type="curve" smooth="yes"/>
      <point x="158.84" y="373.687"/>
      <point x="200.12" y="430"/>
      <point x="282.68" y="430" type="curve" smooth="yes" name="sv01"/>
      <point x="366.2" y="430"/>
      <point x="406.52" y="369.665"/>
      <point x="406.52" y="253.017" type="curve" smooth="yes"/>
      <point x="406.52" y="135.363"/>
      <point x="365.24" y="70"/>
    </contour>
    <contour>
      <point x="526.24" y="308" type="line"/>
      <point x="526.24" y="378"/>
      <point x="576.911" y="430"/>
      <point x="645.748" y="430" type="curve" smooth="yes"/>
      <point x="714.585" y="430"/>
      <point x="759.52" y="378"/>
      <point x="759.52" y="308" type="curve"/>
    </contour>
    <contour>
      <point x="834.4" y="182" type="line"/>
      <point x="790.185" y="93.415"/>
      <point x="733.912" y="70"/>
      <point x="663.092" y="70" type="curve" smooth="yes"/>
      <point x="587.487" y="70"/>
      <point x="525.28" y="118"/>
      <point x="525.28" y="228" type="curve"/>
      <point x="880.48" y="228" type="line"/>
      <point x="890.48" y="410"/>
      <point x="794.256" y="520"/>
      <point x="648.633" y="520" type="curve" smooth="yes"/>
      <point x="502.052" y="520"/>
      <point x="410.08" y="410"/>
      <point x="410.08" y="255" type="curve" smooth="yes"/>
      <point x="410.08" y="90"/>
      <point x="503.962" y="-20"/>
      <point x="660.758" y="-20" type="curve" smooth="yes"/>
      <point x="749.203" y="-20"/>
      <point x="822.009" y="15"/>
      <point x="864.16" y="74" type="curve"/>
    </contour>
  </outline>
</glyph>
<glyph name="s.ss09" format="2">
  <advance width="490"/>
  <anchor x="245" y="-20" name="bottom"/>
  <anchor x="235" y="520" name="top"/>
  <outline>
    <contour>
      <point x="40" y="150" type="line"/>
      <point x="53" y="40.355"/>
      <point x="129" y="-20"/>
      <point x="255" y="-20" type="curve" smooth="yes"/>
      <point x="377" y="-20"/>
      <point x="446" y="37"/>
      <point x="446" y="135" type="curve" smooth="yes"/>
      <point x="446" y="232"/>
      <point x="377.932" y="282.556"/>
      <point x="259" y="301" type="curve" smooth="yes"/>
      <point x="190.93" y="311.556"/>
      <point x="160" y="330.154"/>
      <point x="160" y="369.487" type="curve" smooth="yes"/>
      <point x="160" y="406.803"/>
      <point x="187" y="430"/>
      <point x="236" y="430" type="curve" smooth="yes"/>
      <point x="286" y="430"/>
      <point x="317" y="404.684"/>
      <point x="325" y="350" type="curve"/>
      <point x="445" y="350" type="line"/>
      <point x="432" y="459.645"/>
      <point x="356" y="520"/>
      <point x="236" y="520" type="curve" smooth="yes"/>
      <point x="114" y="520"/>
      <point x="40" y="458"/>
      <point x="40" y="361" type="curve" smooth="yes"/>
      <point x="40" y="268"/>
      <point x="107.068" y="217.444"/>
      <point x="226" y="199" type="curve" smooth="yes"/>
      <point x="294.07" y="188.444"/>
      <point x="325" y="169.846"/>
      <point x="325" y="130.513" type="curve" smooth="yes"/>
      <point x="325" y="93.197"/>
      <point x="298" y="70"/>
      <point x="249" y="70" type="curve" smooth="yes"/>
      <point x="199" y="70"/>
      <point x="169" y="94.295"/>
      <point x="160" y="150" type="curve"/>
    </contour>
  </outline>
</glyph>
<glyph name="s.ss10" format="2">
  <advance width="502"/>
  <anchor x="238" y="520" name="top"/>
  <anchor x="255" y="-20" name="bottom"/>
  <outline>
    <contour>
      <point x="40" y="74" type="line"/>
      <point x="84" y="15"/>
      <point x="160" y="-20"/>
      <point x="258" y="-20" type="curve" smooth="yes"/>
      <point x="368" y="-20"/>
      <point x="458" y="30"/>
      <point x="458" y="138" type="curve" smooth="yes"/>
      <point x="458" y="232.31"/>
      <point x="367.067" y="259.977"/>
      <point x="286.691" y="284.432" type="curve" smooth="yes"/>
      <point x="223.035" y="303.799"/>
      <point x="166" y="321.153"/>
      <point x="166" y="368" type="curve" smooth="yes"/>
      <point x="166" y="407"/>
      <point x="198" y="430"/>
      <point x="249" y="430" type="curve" smooth="yes"/>
      <point x="312" y="430"/>
      <point x="364" y="395"/>
      <point x="414" y="322" type="curve"/>
      <point x="445" y="430" type="line"/>
      <point x="422" y="470"/>
      <point x="345" y="520"/>
      <point x="236" y="520" type="curve" smooth="yes"/>
      <point x="120" y="520"/>
      <point x="48" y="464"/>
      <point x="48" y="373" type="curve" smooth="yes"/>
      <point x="48" y="260.543"/>
      <point x="145.783" y="232.092"/>
      <point x="227.984" y="208.174" type="curve" smooth="yes"/>
      <point x="287.588" y="190.832"/>
      <point x="339" y="175.873"/>
      <point x="339" y="133" type="curve" smooth="yes"/>
      <point x="339" y="91"/>
      <point x="298" y="70"/>
      <point x="258" y="70" type="curve" smooth="yes"/>
      <point x="187" y="70"/>
      <point x="130" y="97"/>
      <point x="71" y="182" type="curve"/>
    </contour>
  </outline>
</glyph>
<glyph name="thorn.ss11" format="2">
  <advance width="615"/>
  <outline>
    <contour>
      <point x="73" y="-200" type="line" name="av01"/>
      <point x="193" y="-200" type="line"/>
      <point x="193.3" y="106.34" type="line"/>
      <point x="221.55" y="26.78"/>
      <point x="276.01" y="-20"/>
      <point x="353" y="-20" type="curve" smooth="yes" name="dv01"/>
      <point x="491" y="-20"/>
      <point x="575" y="99"/>
      <point x="575" y="255" type="curve" smooth="yes"/>
      <point x="575" y="411"/>
      <point x="500" y="520"/>
      <point x="359" y="520" type="curve" smooth="yes" name="at01"/>
      <point x="279.2" y="520"/>
      <point x="222.41" y="476.67"/>
      <point x="193.3" y="398.53" type="curve"/>
      <point x="193.3" y="700" type="line"/>
      <point x="73.3" y="700" type="line"/>
    </contour>
    <contour>
      <point x="328" y="70" type="curve" smooth="yes" name="dv02"/>
      <point x="251.36" y="70"/>
      <point x="193.3" y="148.471"/>
      <point x="193.3" y="247.37" type="curve" smooth="yes"/>
      <point x="193.3" y="358.878"/>
      <point x="246.146" y="430"/>
      <point x="329" y="430" type="curve" smooth="yes" name="sv01"/>
      <point x="409" y="430"/>
      <point x="455" y="366.82"/>
      <point x="455" y="255.51" type="curve" smooth="yes"/>
      <point x="455" y="142.19"/>
      <point x="406" y="70"/>
    </contour>
  </outline>
</glyph>
<glyph name="u.ss05" format="2">
  <advance width="580"/>
  <anchor x="290" y="-20" name="bottom"/>
  <anchor x="290" y="520" name="top"/>
  <anchor x="501" y="-2" name="ogonek"/>
  <outline>
    <contour>
      <point x="399" y="215" type="line"/>
      <point x="387" y="283" type="line"/>
      <point x="387" y="145.293"/>
      <point x="345" y="70"/>
      <point x="271" y="70" type="curve" smooth="yes"/>
      <point x="214" y="70"/>
      <point x="186" y="114.792"/>
      <point x="186" y="198.403" type="curve" smooth="yes"/>
      <point x="186" y="500" type="line"/>
      <point x="66" y="500" type="line"/>
      <point x="66" y="196" type="line" smooth="yes"/>
      <point x="66" y="51"/>
      <point x="124" y="-20"/>
      <point x="231" y="-20" type="curve" smooth="yes"/>
      <point x="325" y="-20"/>
      <point x="373" y="35"/>
      <point x="399" y="134" type="curve"/>
    </contour>
    <contour>
      <point x="387" y="0" type="line" name="ab01"/>
      <point x="507" y="0" type="line"/>
      <point x="507" y="500" type="line"/>
      <point x="387" y="500" type="line" name="av01"/>
    </contour>
  </outline>
</glyph>
<glyph name="vecyr.loclBGR" format="2">
  <advance width="527"/>
  <anchor x="267" y="739" name="top"/>
  <anchor x="263" y="-20" name="bottom"/>
  <outline>
    <contour>
      <point x="418.1" y="389.74" type="curve"/>
      <point x="454.24" y="424.32"/>
      <point x="476" y="474.11"/>
      <point x="476" y="536.27" type="curve" smooth="yes"/>
      <point x="476" y="666.52"/>
      <point x="405" y="748.5"/>
      <point x="269.87" y="748.5" type="curve" smooth="yes"/>
      <point x="134.74" y="748.5"/>
      <point x="69.56" y="680.9"/>
      <point x="69.587" y="536.206" type="curve" smooth="yes"/>
      <point x="69.652" y="193.384" type="line" smooth="yes"/>
      <point x="69.68" y="48.469"/>
      <point x="137.085" y="-20"/>
      <point x="279.72" y="-20" type="curve" smooth="yes"/>
      <point x="421.5" y="-20"/>
      <point x="496" y="69"/>
      <point x="496" y="208.66" type="curve" smooth="yes"/>
      <point x="496" y="291.39"/>
      <point x="468.11" y="353.73"/>
    </contour>
    <contour>
      <point x="268" y="334.5" type="line" smooth="yes"/>
      <point x="345.95" y="334.5"/>
      <point x="376" y="297.772"/>
      <point x="376" y="202.5" type="curve" smooth="yes"/>
      <point x="376" y="116.53"/>
      <point x="340.87" y="70"/>
      <point x="275.97" y="70" type="curve" smooth="yes"/>
      <point x="216.06" y="70"/>
      <point x="189.62" y="98.51"/>
      <point x="189.723" y="185.734" type="curve" smooth="yes"/>
      <point x="189.9" y="334.5" type="line"/>
    </contour>
    <contour>
      <point x="189.726" y="543.684" type="line" smooth="yes"/>
      <point x="189.578" y="629.929"/>
      <point x="214.2" y="658.5"/>
      <point x="269.87" y="658.5" type="curve" smooth="yes"/>
      <point x="323.53" y="658.5"/>
      <point x="356" y="614.306"/>
      <point x="356" y="541.249" type="curve" smooth="yes"/>
      <point x="356" y="465.778"/>
      <point x="325.548" y="424.5"/>
      <point x="269.87" y="424.5" type="curve" smooth="yes"/>
      <point x="189.93" y="424.5" type="line"/>
    </contour>
  </outline>
</glyph>
<glyph name="yacyr.ss08" format="2">
  <advance width="550"/>
  <anchor x="265" y="-20" name="bottom"/>
  <anchor x="265" y="520" name="top"/>
  <outline>
    <contour>
      <point x="357" y="0" type="line"/>
      <point x="477" y="0" type="line"/>
      <point x="477" y="500" type="line"/>
      <point x="245" y="500" type="line" smooth="yes"/>
      <point x="111" y="500"/>
      <point x="33" y="439"/>
      <point x="33" y="336" type="curve" smooth="yes"/>
      <point x="33" y="236"/>
      <point x="109" y="183"/>
      <point x="254" y="183" type="curve" smooth="yes"/>
      <point x="357" y="183" type="line"/>
    </contour>
    <contour>
      <point x="357" y="273" type="line"/>
      <point x="239" y="273" type="line" smooth="yes"/>
      <point x="184" y="273"/>
      <point x="154" y="296"/>
      <point x="154" y="340" type="curve" smooth="yes"/>
      <point x="154" y="387"/>
      <point x="184" y="410"/>
      <point x="239" y="410" type="curve" smooth="yes"/>
      <point x="357" y="410" type="line"/>
    </contour>
    <contour>
      <point x="159" y="0" type="line"/>
      <point x="186" y="36"/>
      <point x="156" y="105"/>
      <point x="182" y="156" type="curve" smooth="yes"/>
      <point x="197" y="185"/>
      <point x="251" y="183"/>
      <point x="270" y="183" type="curve"/>
      <point x="189" y="225" type="line"/>
      <point x="139" y="214"/>
      <point x="88" y="213"/>
      <point x="62" y="162" type="curve" smooth="yes"/>
      <point x="36" y="111"/>
      <point x="66" y="36"/>
      <point x="39" y="0" type="curve"/>
    </contour>
  </outline>
</glyph>
